<?xml version="1.0" encoding="UTF-8" standalone="no"?>
<!-- Created with Inkscape (http://www.inkscape.org/) -->

<svg
   xmlns:dc="http://purl.org/dc/elements/1.1/"
   xmlns:cc="http://creativecommons.org/ns#"
   xmlns:rdf="http://www.w3.org/1999/02/22-rdf-syntax-ns#"
   xmlns:svg="http://www.w3.org/2000/svg"
   xmlns="http://www.w3.org/2000/svg"
   xmlns:sodipodi="http://sodipodi.sourceforge.net/DTD/sodipodi-0.dtd"
   xmlns:inkscape="http://www.inkscape.org/namespaces/inkscape"
   width="13.229068mm"
   height="20.015663mm"
   viewBox="0 0 13.229068 20.015663"
   version="1.1"
   id="svg8"
   inkscape:version="0.92.5 (2060ec1f9f, 2020-04-08)"
   sodipodi:docname="hare_small.svg"
   inkscape:export-filename="/home/johnathan/Documents/parashrahman.github.io/img/hare_50_75.png"
   inkscape:export-xdpi="300"
   inkscape:export-ydpi="300">
  <defs
     id="defs2" />
  <sodipodi:namedview
     id="base"
     pagecolor="#ffffff"
     bordercolor="#666666"
     borderopacity="1.0"
     inkscape:pageopacity="0.0"
     inkscape:pageshadow="2"
     inkscape:zoom="13.106061"
     inkscape:cx="16.619128"
     inkscape:cy="27.178916"
     inkscape:document-units="mm"
     inkscape:current-layer="layer1"
     showgrid="false"
     inkscape:window-width="1920"
     inkscape:window-height="1016"
     inkscape:window-x="0"
     inkscape:window-y="27"
     inkscape:window-maximized="1"
     fit-margin-top="0"
     fit-margin-left="0"
     fit-margin-right="0"
     fit-margin-bottom="0" />
  <metadata
     id="metadata5">
    <rdf:RDF>
      <cc:Work
         rdf:about="">
        <dc:format>image/svg+xml</dc:format>
        <dc:type
           rdf:resource="http://purl.org/dc/dcmitype/StillImage" />
        <dc:title />
      </cc:Work>
    </rdf:RDF>
  </metadata>
  <g
     inkscape:label="Layer 1"
     inkscape:groupmode="layer"
     id="layer1"
     style="display:inline"
     transform="translate(-105.39601,-117.11704)" />
  <g
     inkscape:groupmode="layer"
     id="layer2"
     inkscape:label="outline"
     transform="translate(-105.39601,-117.11704)">
    <path
       style="fill:none;stroke:#000000;stroke-width:0.355;stroke-linecap:butt;stroke-linejoin:miter;stroke-opacity:1;stroke-miterlimit:4;stroke-dasharray:none"
       d="m 108.51634,122.71646 -0.1902,-1.09363 -0.0951,-0.95099 0.38039,-0.85589 1.04609,-1.90197 0.52304,-0.66569 0.1902,-0.0951 0.2853,0.52304 0.28529,1.61668 -0.0476,1.37893 -0.0951,0.66569 -0.38039,0.66569 -0.42794,0.33285 -0.2853,0.38039 0.14265,0.76079 0.28529,1.33138 0.4755,0.95099 0.90344,0.33285 0.76078,0.23774 0.4755,0.71324 0.90344,0.42795 0.33284,0.42794 0.90344,0.14265 1.09363,0.80834 1.04609,0.71324 0.80834,0.95098 0.61814,1.56913 0.14265,1.23629 -0.42795,0.57059 -0.38039,1.09363 -1.23628,0.3804 -1.04609,-0.14265 -0.52304,-0.99854 0.57059,1.14119 0.28529,1.14118 -0.19019,0.3804 -1.56913,0.14265 -1.66423,-0.23775 h -0.61814 -0.52304 l 0.14265,-0.42795 0.42794,-0.33284 0.42794,-0.1902 0.52305,-0.0476 h 0.90343 l 0.5706,-0.0476 0.42794,-0.1902 -0.42794,-1.09363 -0.5706,-1.04609 0.14265,-1.18873 0.52304,-0.23775 0.61815,0.0951 0.71324,0.2853"
       id="path827"
       inkscape:connector-curvature="0" />
    <path
       style="fill:none;stroke:#000000;stroke-width:0.355;stroke-linecap:butt;stroke-linejoin:miter;stroke-opacity:1;stroke-miterlimit:4;stroke-dasharray:none"
       d="m 114.26981,134.46115 -1.37893,-0.33285 -0.4755,-0.52304 -0.95098,-1.04608 -0.33285,-0.33285 0.99853,-1.18873 -0.38039,-0.66569"
       id="path829"
       inkscape:connector-curvature="0" />
    <path
       style="fill:none;stroke:#000000;stroke-width:0.355;stroke-linecap:butt;stroke-linejoin:miter;stroke-opacity:1;stroke-miterlimit:4;stroke-dasharray:none"
       d="m 111.13155,132.22633 v 0 l -0.3804,1.75933 -0.23774,0.85589 -0.3804,0.95098 0.0476,0.57059 -0.52304,0.42795 h -0.42794 l -0.1902,0.28529 -0.1902,-0.42794 0.1902,-0.42794 0.28529,-0.2853 0.42795,-1.47403 -0.14265,-0.95099 0.23775,-1.80687 -1.33138,-0.95099 -0.71324,-1.09363 -0.5706,-0.99854 0.76079,-1.52158 0.33285,-0.71324 0.38039,-0.23775 -0.47549,0.33285 -0.99854,0.2853 -0.19019,-0.0476 -0.4755,-0.23775 -0.33284,-0.0951 h -0.2853 l -0.38039,-0.1902 -0.14265,-0.52304 0.33284,-0.47549 0.5706,-0.61814 0.61814,-0.71324 1.56912,-1.18874"
       id="path831"
       inkscape:connector-curvature="0" />
  </g>
</svg>
