<?xml version="1.0" encoding="UTF-8" standalone="no"?>
<!-- Created with Inkscape (http://www.inkscape.org/) -->

<svg
   xmlns:dc="http://purl.org/dc/elements/1.1/"
   xmlns:cc="http://creativecommons.org/ns#"
   xmlns:rdf="http://www.w3.org/1999/02/22-rdf-syntax-ns#"
   xmlns:svg="http://www.w3.org/2000/svg"
   xmlns="http://www.w3.org/2000/svg"
   xmlns:sodipodi="http://sodipodi.sourceforge.net/DTD/sodipodi-0.dtd"
   xmlns:inkscape="http://www.inkscape.org/namespaces/inkscape"
   width="13.226751mm"
   height="12.861684mm"
   viewBox="0 0 13.226752 12.861684"
   version="1.1"
   id="svg8"
   inkscape:version="0.92.5 (2060ec1f9f, 2020-04-08)"
   sodipodi:docname="rabbit_small.svg"
   inkscape:export-filename="/home/johnathan/Documents/parashrahman.github.io/img/rabbit_75_75.png"
   inkscape:export-xdpi="300"
   inkscape:export-ydpi="300">
  <defs
     id="defs2" />
  <sodipodi:namedview
     id="base"
     pagecolor="#ffffff"
     bordercolor="#666666"
     borderopacity="1.0"
     inkscape:pageopacity="0.0"
     inkscape:pageshadow="2"
     inkscape:zoom="10.084556"
     inkscape:cx="17.322294"
     inkscape:cy="25.388121"
     inkscape:document-units="mm"
     inkscape:current-layer="layer1"
     showgrid="false"
     inkscape:window-width="1920"
     inkscape:window-height="1016"
     inkscape:window-x="0"
     inkscape:window-y="27"
     inkscape:window-maximized="1"
     fit-margin-top="0"
     fit-margin-left="0"
     fit-margin-right="0"
     fit-margin-bottom="0" />
  <metadata
     id="metadata5">
    <rdf:RDF>
      <cc:Work
         rdf:about="">
        <dc:format>image/svg+xml</dc:format>
        <dc:type
           rdf:resource="http://purl.org/dc/dcmitype/StillImage" />
        <dc:title />
      </cc:Work>
    </rdf:RDF>
  </metadata>
  <g
     inkscape:label="Layer 1"
     inkscape:groupmode="layer"
     id="layer1"
     transform="translate(-89.018402,-140.83298)">
    <path
       style="fill:none;stroke:#000000;stroke-width:0.332;stroke-linecap:butt;stroke-linejoin:miter;stroke-opacity:1;stroke-miterlimit:4;stroke-dasharray:none"
       d="m 96.833906,144.01414 v 0"
       id="path926"
       inkscape:connector-curvature="0" />
  </g>
  <g
     inkscape:groupmode="layer"
     id="layer2"
     inkscape:label="outline"
     transform="translate(-89.018402,-140.83298)">
    <path
       style="fill:none;stroke:#000000;stroke-width:0.332;stroke-linecap:butt;stroke-linejoin:miter;stroke-opacity:1;stroke-miterlimit:4;stroke-dasharray:none"
       d="m 99.716168,140.84926 -0.53691,0.0282 -0.734699,0.19779 -0.960779,0.39564 -0.367349,-0.25431 -0.48039,-0.31083 c 0,0 -0.536889,0.0847 -0.678179,0.11298 -0.107753,0.0216 -0.992985,0.14914 -1.490601,0.22058 0.004,0.0458 2.33e-4,0.0923 1.96e-4,0.13835 -3.2e-5,0.0367 -0.0011,0.0733 -0.0018,0.11001 0.04884,0.0181 0.0842,0.0705 0.08044,0.14588 0.008,-7.3e-4 0.01605,-0.002 0.02411,-0.002 0.01376,-7.3e-4 0.005,0.0272 0.0058,0.0409 4.54e-4,0.008 -2.32e-4,0.0208 -6.36e-4,0.0326 0.01827,0.0345 0.02764,0.0716 0.05424,0.10177 0.04309,0.0489 -0.02426,-0.0614 0.04082,0.0394 0.01336,0.0207 0.0236,0.0433 0.03538,0.0649 0.03156,0.0421 0.03636,0.0921 0.04203,0.14158 0.0867,0.0506 0.159483,0.11849 0.169687,0.22153 0.0013,0.0129 7.48e-4,0.0259 2.58e-4,0.0389 l 0.220701,0.0903 0.593367,0.67824 0.678241,0.31083 0.280829,0.0702 -0.02652,0.21235 0.169561,0.33912 c 0,0 -0.254351,0.14126 -0.395641,0.14126 -0.141291,0 -0.310829,-0.11304 -0.310829,-0.11304 l -0.53691,-0.0847 h -0.649951 l -1.243317,0.2543 -0.791219,0.31083 -1.045592,0.56521 c 0,0 -0.621637,0.53688 -0.762927,0.62165 -0.141291,0.0848 -0.59343,0.7347 -0.59343,0.7347 l -0.565139,1.24338 -0.282601,1.27161 -0.05652,1.49769 -0.02829,1.10205 -0.141268,0.0565 -0.254309,0.0565 -0.141269,0.39558 0.02823,0.53691 0.508618,0.53691 0.621722,0.19779 0.621659,0.11304 0.395641,-0.22608 0.36735,0.16956 0.960779,0.0848 1.808456,0.19779 1.55421,-0.0565 1.13034,0.0565 1.469398,-0.19779 0.02829,-0.33912 -0.452161,-0.45216 -0.53691,-0.42387 -0.536909,-0.0282 H 95.8166 c 0,0 0.0565,-0.0282 0.25431,-0.0282 0.197806,0 0.395594,-0.11307 0.621657,-0.14133 0.226066,-0.0283 0.08481,-0.22608 0.08481,-0.22608 l 0.593367,-0.33906 1.045591,-0.19779 0.282538,0.25431 0.621721,0.31083 0.593431,0.7347 0.112975,0.36735 c 0,0 1.49769,-0.0565 1.80852,-0.0847 0.31084,-0.0283 0,-0.11304 0,-0.11304 l -0.16949,-0.33912 -0.3109,-0.36735 -0.31083,-0.33906 -0.59343,-0.93255 h 0.0365 c -0.0455,-0.12 -0.027,-0.1045 3.7e-4,-0.21488 8.6e-4,-0.003 -0.005,-0.0248 -0.005,-0.0253 -0.0114,-0.0541 0.0162,-0.10626 0.0309,-0.1576 0.002,-0.007 -0.002,-0.0216 0.006,-0.0208 0.006,6.1e-4 0.012,0.002 0.0181,0.004 -3.7e-4,-0.005 -3.7e-4,-0.0104 -6.1e-4,-0.0156 -0.004,-7.3e-4 -0.009,-0.001 -0.0132,-0.002 0.006,-0.0335 0.009,-0.0513 0.012,-0.0732 -10e-4,-0.0479 -0.004,-0.0924 -3.6e-4,-0.13545 -7e-5,-0.0419 7.3e-4,-0.0838 10e-4,-0.1257 6e-5,-0.0106 -0.002,-0.0215 6e-5,-0.0318 0.008,-0.0312 0.02,-0.0611 0.0299,-0.0917 0.001,-0.001 0.003,-0.003 0.004,-0.004 0.009,-0.0894 0.007,-0.069 0.0528,-0.16412 0.0388,-0.0706 0.0213,-0.0761 0.0895,-0.12931 -0.0113,-0.008 -0.0355,-0.0268 -0.0355,-0.0268 h 0.0508 c 0.001,-0.003 0.003,-0.006 0.003,-0.008 0.022,-0.0714 0.0255,-0.0701 0.0532,-0.11342 -3.7e-4,2.5e-4 -7.4e-4,3.7e-4 -6.2e-4,-4.9e-4 8.6e-4,-0.009 0.007,-0.0171 0.01,-0.0256 0.005,-0.053 -0.004,-0.10679 -0.005,-0.16032 -0.002,-0.0628 0.0135,-0.0689 0.047,-0.14399 8.5e-4,-0.002 0.004,-0.007 10e-4,-0.006 -0.005,9.8e-4 -0.007,0.008 -0.0116,0.009 -0.0126,-0.0561 -0.004,-0.0992 0.0109,-0.15672 0.004,-0.0167 0.0132,-0.0319 0.019,-0.0482 0.002,-0.004 0.005,-0.009 0.003,-0.013 -10e-4,-0.003 -0.003,0.006 -0.005,0.009 -0.0425,-0.045 0.055,-0.14503 0.0712,-0.1707 0.004,-0.006 -0.006,-0.0159 -0.011,-0.016 -0.0374,-0.0847 0.0115,-0.16582 0.0494,-0.2369 0.0579,-0.1085 0.006,-0.0176 0.0732,-0.13102 0.0617,-0.0793 0.0282,-0.0406 0.0794,-0.0882 -9.8e-4,3.7e-4 -0.002,0.001 -0.003,9.8e-4 -0.005,-0.001 0.005,-0.009 0.008,-0.0135 0.0328,-0.0626 -0.005,7.3e-4 0.0512,-0.0874 0.0149,-0.02 0.0395,-0.0563 0.061,-0.0686 0.0256,-0.0147 0.0544,-0.0231 0.0819,-0.034 0.002,-0.0108 0.005,-0.0163 0.0111,-0.0201 10e-4,-0.0346 0.002,-0.0703 0.006,-0.10336 0.004,-0.0356 0.0265,-0.0647 0.0363,-0.0982 10e-4,-0.004 -0.004,0.0123 -0.007,0.01 -0.003,-0.003 -0.002,-0.009 -0.003,-0.0139 -0.002,-0.011 -0.003,-0.022 -0.004,-0.033 0.0191,-0.12775 0.002,-0.0806 0.0557,-0.19355 0.007,-0.0151 0.0173,-0.0289 0.023,-0.0446 7.4e-4,-0.002 -0.006,-0.001 -0.006,-0.003 0.003,-0.0196 0.008,-0.0346 0.0141,-0.0492 -0.008,-0.0517 -0.004,-0.10896 -0.003,-0.16064 l -0.14045,-0.0468 0.1414,-0.0808 -2.5e-4,-0.0527 c -1e-4,-0.0789 1e-4,-0.1579 7e-5,-0.23684 0.006,-0.0383 -0.008,-0.10433 0,-0.13906 0.006,-0.0232 0.0134,-0.0458 0.0211,-0.0684 -0.0173,-0.0312 -0.0348,-0.0623 -0.0429,-0.0967 -0.006,-0.024 0.0122,-0.0478 0.0183,-0.0717 0.0544,-0.12022 0.0283,-0.065 0.0571,-0.1188 6.1e-4,-0.0228 0.002,-0.0453 0.002,-0.0658 0.004,-0.017 0.0106,-0.0336 0.0113,-0.051 2.4e-4,-0.008 -0.0124,0.0273 -0.0101,0.0202 0.0129,-0.0398 0.0249,-0.08 0.042,-0.11817 0.003,-0.006 0.0275,-0.0456 0.0472,-0.0804 -2.5e-4,-0.007 7.3e-4,-0.013 0.002,-0.0192 l -0.0639,-0.0359 0.12335,-0.185 c 0.0103,-0.0367 0.0288,-0.0708 0.0551,-0.10216 l -0.18393,-0.41791 -0.18466,-0.415 0.30315,-0.40591 0.22608,-0.4521 0.22608,-0.59343 0.14127,-0.50862 -0.0283,-0.48039 v 0 l -0.1695,-0.59343 -0.50868,-0.42387 -0.50862,-0.36735 -0.48039,-0.16956 z"
       id="path990"
       inkscape:connector-curvature="0"
       sodipodi:nodetypes="ccccccccccccccccccccccccccscccccccccccccccccccccccccccccccsccccccccsccccccccccccccccccccccccccccccccccccccccccccccccccccccccccccccccccccccccccccccccccccccc" />
    <path
       style="fill:none;stroke:#000000;stroke-width:0.332;stroke-linecap:butt;stroke-linejoin:miter;stroke-opacity:1;stroke-miterlimit:4;stroke-dasharray:none"
       d="m 101.58615,146.16039 c 9.8e-4,0.0211 0.0119,0.0433 0.028,0.0635 0.006,-0.0105 0.0133,-0.0211 0.0203,-0.0317 2e-5,-0.008 -2.4e-4,-0.0168 0,-0.0252 l -0.0398,-0.0224 c -0.003,0.005 -0.005,0.0101 -0.008,0.0158 z"
       id="path988"
       inkscape:connector-curvature="0" />
    <path
       style="fill:none;stroke:#000000;stroke-width:0.332;stroke-linecap:butt;stroke-linejoin:miter;stroke-opacity:1;stroke-miterlimit:4;stroke-dasharray:none"
       d="m 101.32601,148.05726 c -2.4e-4,0.005 -4.9e-4,0.0108 -7.3e-4,0.0161 0.002,-8.5e-4 0.004,-0.002 0.005,-0.004 3.6e-4,-0.002 -0.002,-0.003 -0.004,-0.004 0.004,-0.005 0.009,-0.0106 0.013,-0.0159 -0.005,0.003 -0.009,0.005 -0.0132,0.008 z"
       id="path986"
       inkscape:connector-curvature="0" />
    <path
       style="fill:none;stroke:#000000;stroke-width:0.332;stroke-linecap:butt;stroke-linejoin:miter;stroke-opacity:1;stroke-miterlimit:4;stroke-dasharray:none"
       d="m 101.32528,148.0734 c -2.5e-4,1e-4 -4.9e-4,2.5e-4 -7.4e-4,3.7e-4 -0.003,0.001 -0.007,0.002 -0.01,0.004 -2.4e-4,0.002 -7.3e-4,0.003 -8.5e-4,0.004 -10e-4,0.0157 0.005,0.0625 0.007,0.0468 0.002,-0.0172 0.004,-0.036 0.005,-0.0552 z"
       id="path984"
       inkscape:connector-curvature="0" />
    <path
       style="fill:none;stroke:#000000;stroke-width:0.332;stroke-linecap:butt;stroke-linejoin:miter;stroke-opacity:1;stroke-miterlimit:4;stroke-dasharray:none"
       d="m 101.45288,147.47807 c -0.003,0.001 -0.005,0.0211 -0.006,0.0388 0.004,-0.009 0.007,-0.0167 0.0115,-0.0266 -0.002,-0.009 -0.004,-0.0126 -0.006,-0.0121 z"
       id="path982"
       inkscape:connector-curvature="0" />
    <path
       style="fill:none;stroke:#000000;stroke-width:0.332;stroke-linecap:butt;stroke-linejoin:miter;stroke-opacity:1;stroke-miterlimit:4;stroke-dasharray:none"
       d="m 100.62153,149.84521 c -1.2e-4,-0.002 -0.0235,0.0194 -0.0294,0.0291 -10e-4,0.002 -0.002,0.005 -0.003,0.007 0.0107,-0.0112 0.0214,-0.0224 0.0313,-0.0342 9.8e-4,-10e-4 0.001,-0.002 0.001,-0.002 z"
       id="path980"
       inkscape:connector-curvature="0" />
    <path
       style="fill:none;stroke:#000000;stroke-width:0.332;stroke-linecap:butt;stroke-linejoin:miter;stroke-opacity:1;stroke-miterlimit:4;stroke-dasharray:none"
       d="m 100.54665,150.43415 c -0.0298,0.004 -0.0233,0.004 0.001,0.004 -4.9e-4,-0.001 -8.6e-4,-0.003 -0.001,-0.004 z"
       id="path838"
       inkscape:connector-curvature="0" />
    <path
       style="fill:none;stroke:#000000;stroke-width:0.332;stroke-linecap:butt;stroke-linejoin:miter;stroke-opacity:1;stroke-miterlimit:4;stroke-dasharray:none"
       d="m 96.833906,144.01414 0.621638,0.28258 0.423869,0.14129"
       id="path928"
       inkscape:connector-curvature="0" />
  </g>
</svg>
