<?xml version="1.0" encoding="UTF-8" standalone="no"?>
<!-- Created with Inkscape (http://www.inkscape.org/) -->

<svg
   xmlns:dc="http://purl.org/dc/elements/1.1/"
   xmlns:cc="http://creativecommons.org/ns#"
   xmlns:rdf="http://www.w3.org/1999/02/22-rdf-syntax-ns#"
   xmlns:svg="http://www.w3.org/2000/svg"
   xmlns="http://www.w3.org/2000/svg"
   xmlns:sodipodi="http://sodipodi.sourceforge.net/DTD/sodipodi-0.dtd"
   xmlns:inkscape="http://www.inkscape.org/namespaces/inkscape"
   width="108.01224mm"
   height="105.01173mm"
   viewBox="0 0 108.01224 105.01173"
   version="1.1"
   id="svg8"
   inkscape:version="0.92.5 (2060ec1f9f, 2020-04-08)"
   sodipodi:docname="rabbit.svg"
   inkscape:export-filename="/home/johnathan/Documents/parashrahman.github.io/img/rabbit.png"
   inkscape:export-xdpi="300"
   inkscape:export-ydpi="300">
  <defs
     id="defs2" />
  <sodipodi:namedview
     id="base"
     pagecolor="#ffffff"
     bordercolor="#666666"
     borderopacity="1.0"
     inkscape:pageopacity="0.0"
     inkscape:pageshadow="2"
     inkscape:zoom="1.3284568"
     inkscape:cx="170.30137"
     inkscape:cy="169.95087"
     inkscape:document-units="mm"
     inkscape:current-layer="layer1"
     showgrid="false"
     inkscape:window-width="1920"
     inkscape:window-height="1016"
     inkscape:window-x="0"
     inkscape:window-y="27"
     inkscape:window-maximized="1"
     fit-margin-top="0"
     fit-margin-left="0"
     fit-margin-right="0"
     fit-margin-bottom="0" />
  <metadata
     id="metadata5">
    <rdf:RDF>
      <cc:Work
         rdf:about="">
        <dc:format>image/svg+xml</dc:format>
        <dc:type
           rdf:resource="http://purl.org/dc/dcmitype/StillImage" />
        <dc:title></dc:title>
      </cc:Work>
    </rdf:RDF>
  </metadata>
  <g
     inkscape:label="Layer 1"
     inkscape:groupmode="layer"
     id="layer1"
     transform="translate(-41.626799,-94.75796)">
    <path
       style="fill:none;stroke:#000000;stroke-width:0.26458332px;stroke-linecap:butt;stroke-linejoin:miter;stroke-opacity:1"
       d="m 105.43863,120.73113 v 0"
       id="path926"
       inkscape:connector-curvature="0" />
  </g>
  <g
     inkscape:groupmode="layer"
     id="layer2"
     inkscape:label="outline"
     transform="translate(-41.626799,-94.75796)">
    <path
       style="fill:none;stroke:#000000;stroke-width:0.26458332px;stroke-linecap:butt;stroke-linejoin:miter;stroke-opacity:1"
       d="m 128.97145,94.890848 -4.38371,0.230476 -5.9986,1.614889 -7.84448,3.230293 -2.9993,-2.076357 -3.92224,-2.537831 c 0,0 -4.383536,0.691703 -5.53713,0.922425 -0.879774,0.175951 -8.107428,1.217634 -12.170317,1.800923 0.03277,0.373899 0.0019,0.753465 0.0016,1.129647 -2.64e-4,0.299283 -0.0093,0.598813 -0.01498,0.898137 0.39873,0.14777 0.68744,0.57527 0.656807,1.19114 0.06549,-0.006 0.131022,-0.0133 0.196887,-0.0165 0.112339,-0.006 0.04064,0.22205 0.04703,0.33435 0.0037,0.0652 -0.0019,0.17002 -0.0052,0.26613 0.149137,0.28204 0.225639,0.58466 0.442867,0.83096 0.351848,0.39897 -0.198048,-0.50093 0.333312,0.32143 0.109122,0.16888 0.192685,0.35311 0.288872,0.52968 0.257701,0.34395 0.296828,0.75186 0.34313,1.156 0.707861,0.41336 1.302128,0.96746 1.385445,1.80868 0.01042,0.10533 0.0061,0.21132 0.0021,0.31729 l 1.801958,0.73742 4.844666,5.53765 5.537643,2.53783 2.29288,0.57309 -0.21652,1.73375 1.38441,2.76882 c 0,0 -2.0767,1.15342 -3.23029,1.15342 -1.1536,0 -2.53783,-0.92294 -2.53783,-0.92294 l -4.383712,-0.69195 h -5.306652 l -10.151319,2.07636 -6.46007,2.53783 -8.536947,4.6147 c 0,0 -5.075487,4.38351 -6.229078,5.07566 -1.153594,0.69216 -4.845182,5.9986 -4.845182,5.9986 l -4.614188,10.15184 -2.307352,10.38231 -0.46147,12.22819 -0.230994,8.9979 -1.153417,0.46147 -2.07636,0.46147 -1.153419,3.22978 0.230478,4.38371 4.152718,4.38371 5.076176,1.61489 5.075658,0.92294 3.230296,-1.84588 2.999298,1.38441 7.844483,0.69247 14.765506,1.61489 12.689666,-0.46147 9.228891,0.46147 11.9972,-1.61489 0.23099,-2.76883 -3.69176,-3.69176 -4.38371,-3.46077 -4.38371,-0.23048 h -9.68985 c 0,0 0.46133,-0.23047 2.07636,-0.23047 1.61503,0 3.22991,-0.92322 5.07565,-1.15394 1.84576,-0.2307 0.69247,-1.84588 0.69247,-1.84588 l 4.84467,-2.76831 8.53694,-1.61488 2.30684,2.07635 5.07617,2.53783 4.84519,5.9986 0.92242,2.9993 c 0,0 12.22812,-0.46122 14.76602,-0.69194 2.53791,-0.23072 0,-0.92294 0,-0.92294 l -1.38389,-2.76883 -2.53835,-2.9993 -2.53783,-2.76831 -4.84518,-7.614 h 0.29766 c -0.37176,-0.97979 -0.2201,-0.85325 0.003,-1.75441 0.007,-0.0271 -0.0419,-0.20287 -0.0424,-0.20671 -0.0927,-0.44164 0.13266,-0.86754 0.2527,-1.28674 0.0161,-0.0562 -0.0131,-0.17625 0.045,-0.1695 0.0467,0.005 0.0978,0.0194 0.14779,0.0315 -0.003,-0.0406 -0.003,-0.0853 -0.005,-0.12764 -0.0366,-0.006 -0.0748,-0.0114 -0.108,-0.0196 0.0477,-0.27355 0.0703,-0.41852 0.0977,-0.59738 -0.0116,-0.39131 -0.0335,-0.75448 -0.003,-1.10588 -5.3e-4,-0.3421 0.006,-0.68425 0.009,-1.02629 5.3e-4,-0.0866 -0.0199,-0.17531 5.3e-4,-0.25942 0.062,-0.25501 0.16301,-0.49879 0.24443,-0.74827 0.0114,-0.0122 0.0232,-0.0241 0.0346,-0.0362 0.0713,-0.72983 0.0534,-0.56345 0.4315,-1.33997 0.3164,-0.57664 0.17386,-0.62169 0.7307,-1.05575 -0.0926,-0.0688 -0.2899,-0.21859 -0.2899,-0.21859 h 0.41496 c 0.009,-0.0214 0.0228,-0.0476 0.0284,-0.0661 0.17924,-0.58308 0.20827,-0.57229 0.43408,-0.92605 -0.003,0.002 -0.006,0.003 -0.005,-0.004 0.007,-0.0745 0.0536,-0.13945 0.0806,-0.20929 0.0388,-0.43264 -0.0334,-0.87195 -0.0424,-1.30896 -0.0171,-0.51277 0.11056,-0.5626 0.38395,-1.17564 0.007,-0.0163 0.0293,-0.0559 0.0119,-0.0522 -0.0383,0.008 -0.0564,0.0616 -0.0946,0.0698 -0.10314,-0.45782 -0.0323,-0.80962 0.0894,-1.27951 0.0353,-0.13639 0.10756,-0.26061 0.15503,-0.39326 0.0123,-0.0343 0.0392,-0.0734 0.0238,-0.10645 -0.0122,-0.026 -0.0248,0.0516 -0.0372,0.0775 -0.34685,-0.36712 0.44874,-1.18414 0.58136,-1.39371 0.0298,-0.0472 -0.0497,-0.12964 -0.0899,-0.13023 -0.30577,-0.69171 0.0936,-1.35389 0.40359,-1.93424 0.47308,-0.88588 0.0455,-0.14349 0.5979,-1.0697 0.50419,-0.64709 0.23006,-0.33151 0.64802,-0.72037 -0.008,0.003 -0.0172,0.01 -0.0238,0.008 -0.041,-0.0114 0.0443,-0.0728 0.0641,-0.11059 0.26776,-0.51087 -0.0376,0.006 0.41806,-0.71365 0.12184,-0.16296 0.32274,-0.4597 0.49765,-0.56017 0.2093,-0.12024 0.4439,-0.18856 0.66869,-0.27751 0.0133,-0.0878 0.0443,-0.13283 0.091,-0.16433 0.0104,-0.28257 0.0161,-0.57409 0.0496,-0.84387 0.0303,-0.29065 0.21672,-0.52807 0.29611,-0.8015 0.009,-0.0305 -0.0306,0.10014 -0.0538,0.0785 -0.0281,-0.0262 -0.0169,-0.0751 -0.0222,-0.11317 -0.0126,-0.0897 -0.0209,-0.17981 -0.0315,-0.26975 0.15624,-1.04307 0.0195,-0.65803 0.45476,-1.58026 0.0582,-0.1234 0.14099,-0.23558 0.18758,-0.36381 0.006,-0.0167 -0.0479,-0.0104 -0.045,-0.0279 0.0271,-0.15993 0.0675,-0.28244 0.11524,-0.40153 -0.0664,-0.42248 -0.0345,-0.88965 -0.0279,-1.31155 l -1.1467,-0.38189 1.15445,-0.65939 -0.002,-0.42995 c -7.9e-4,-0.64453 7.9e-4,-1.28919 5.3e-4,-1.93373 0.0476,-0.31257 -0.0675,-0.85182 0,-1.13533 0.0451,-0.1896 0.10942,-0.37393 0.17208,-0.55862 -0.14092,-0.25478 -0.28393,-0.50828 -0.35037,-0.7891 -0.0463,-0.19575 0.0997,-0.39006 0.14935,-0.58498 0.4444,-0.98156 0.23142,-0.53107 0.46612,-0.96996 0.005,-0.18574 0.0141,-0.3698 0.0191,-0.53692 0.0308,-0.13878 0.0867,-0.27446 0.0925,-0.41651 0.002,-0.0614 -0.10119,0.22328 -0.0822,0.16484 0.1056,-0.3246 0.20285,-0.65336 0.34262,-0.96479 0.0232,-0.0518 0.22493,-0.37257 0.38499,-0.65629 -0.002,-0.0537 0.006,-0.10591 0.0196,-0.1571 l -0.52141,-0.29301 1.00717,-1.5105 c 0.0843,-0.29954 0.23474,-0.57817 0.4501,-0.83406 l -1.50177,-3.41214 -1.50766,-3.38832 2.4751,-3.31416 1.84588,-3.69125 1.84588,-4.84518 1.15342,-4.15272 -0.231,-3.92224 v 0 l -1.38389,-4.84519 -4.15323,-3.46077 -4.15272,-2.999294 -3.92225,-1.384414 z"
       id="path990"
       inkscape:connector-curvature="0"
       sodipodi:nodetypes="ccccccccccccccccccccccccccscccccccccccccccccccccccccccccccsccccccccsccccccccccccccccccccccccccccccccccccccccccccccccccccccccccccccccccccccccccccccccccccccc" />
    <path
       style="fill:none;stroke:#000000;stroke-width:0.26458332px;stroke-linecap:butt;stroke-linejoin:miter;stroke-opacity:1"
       d="m 144.23926,138.25461 c 0.008,0.17264 0.0969,0.35321 0.22841,0.51831 0.0517,-0.0858 0.10854,-0.17212 0.16536,-0.25838 1.1e-4,-0.0694 -0.002,-0.13679 0,-0.20619 l -0.32504,-0.18293 c -0.0234,0.0437 -0.0422,0.0823 -0.0687,0.12919 z"
       id="path988"
       inkscape:connector-curvature="0" />
    <path
       style="fill:none;stroke:#000000;stroke-width:0.26458332px;stroke-linecap:butt;stroke-linejoin:miter;stroke-opacity:1"
       d="m 142.11536,153.74204 c -0.002,0.0443 -0.004,0.0882 -0.006,0.13177 0.016,-0.007 0.0346,-0.015 0.0377,-0.031 0.003,-0.0146 -0.0203,-0.0212 -0.0305,-0.032 0.0353,-0.0434 0.0707,-0.0868 0.10594,-0.13022 -0.0424,0.023 -0.0771,0.041 -0.10749,0.0615 z"
       id="path986"
       inkscape:connector-curvature="0" />
    <path
       style="fill:none;stroke:#000000;stroke-width:0.26458332px;stroke-linecap:butt;stroke-linejoin:miter;stroke-opacity:1"
       d="m 142.10936,153.87381 c -0.002,7.9e-4 -0.004,0.002 -0.006,0.003 -0.026,0.0112 -0.0533,0.0196 -0.0796,0.03 -0.002,0.0129 -0.006,0.0207 -0.007,0.0357 -0.01,0.12839 0.0378,0.50992 0.0558,0.38241 0.0198,-0.14064 0.0295,-0.2938 0.0367,-0.45062 z"
       id="path984"
       inkscape:connector-curvature="0" />
    <path
       style="fill:none;stroke:#000000;stroke-width:0.26458332px;stroke-linecap:butt;stroke-linejoin:miter;stroke-opacity:1"
       d="m 143.15115,149.01312 c -0.0278,0.009 -0.0384,0.17198 -0.0465,0.31678 0.0302,-0.0696 0.0582,-0.13601 0.094,-0.21756 -0.0197,-0.0755 -0.0352,-0.10316 -0.0476,-0.0992 z"
       id="path982"
       inkscape:connector-curvature="0" />
    <path
       style="fill:none;stroke:#000000;stroke-width:0.26458332px;stroke-linecap:butt;stroke-linejoin:miter;stroke-opacity:1"
       d="m 136.36345,168.34011 c -0.001,-0.0125 -0.19216,0.15866 -0.23977,0.23771 -0.0113,0.0188 -0.0188,0.0395 -0.0279,0.0594 0.0875,-0.0911 0.17442,-0.18304 0.2558,-0.27957 0.008,-0.0101 0.0121,-0.0158 0.0119,-0.0176 z"
       id="path980"
       inkscape:connector-curvature="0" />
    <path
       style="fill:none;stroke:#000000;stroke-width:0.26458332px;stroke-linecap:butt;stroke-linejoin:miter;stroke-opacity:1"
       d="m 135.75212,173.1486 c -0.24312,0.0312 -0.18992,0.0367 0.0103,0.0362 -0.004,-0.0119 -0.007,-0.024 -0.0103,-0.0362 z"
       id="path838"
       inkscape:connector-curvature="0" />
    <path
       style="fill:none;stroke:#000000;stroke-width:0.26458332px;stroke-linecap:butt;stroke-linejoin:miter;stroke-opacity:1"
       d="m 105.43863,120.73113 5.07549,2.30718 3.46077,1.1536"
       id="path928"
       inkscape:connector-curvature="0" />
  </g>
</svg>
